<svg xmlns="http://www.w3.org/2000/svg" viewBox="0 0 200 200">
  <defs>
    <linearGradient id="grad1" x1="0%" y1="0%" x2="100%" y2="100%">
      <stop offset="0%" style="stop-color:#667eea;stop-opacity:1" />
      <stop offset="100%" style="stop-color:#764ba2;stop-opacity:1" />
    </linearGradient>
  </defs>
  <!-- Background Circle -->
  <circle cx="100" cy="100" r="90" fill="url(#grad1)" />
  
  <!-- Link Icon -->
  <path d="M115,85 A20,20 0 0,0 85,85 L70,100 A20,20 0 0,0 70,130 L80,140 A20,20 0 0,0 110,140 L115,135 M85,115 A20,20 0 0,1 115,115 L130,100 A20,20 0 0,1 130,70 L120,60 A20,20 0 0,1 90,60 L85,65" 
        fill="none" stroke="#ffffff" stroke-width="12" stroke-linecap="round" stroke-linejoin="round" />
  
  <!-- Arrow indicating redirection -->
  <path d="M140,140 L160,160 M160,140 L160,160 L140,160" 
        fill="none" stroke="#ffffff" stroke-width="8" stroke-linecap="round" stroke-linejoin="round" />
</svg>
